<svg width="12" height="23" viewBox="0 0 12 23" fill="none" xmlns="http://www.w3.org/2000/svg">
<path d="M7.53231 1.02286C6.29271 1.21655 5.42327 1.63836 4.70877 2.39159C4.10619 3.02861 3.73172 3.77323 3.52082 4.75028C3.43904 5.12044 3.43043 5.34426 3.41321 7.08314L3.396 9.01142H1.69585H0V10.9698V12.9282L1.69154 12.9368L3.37878 12.9497L3.39169 17.9727L3.4003 23H5.42327H7.44623V17.9641V12.9282H9.12486C10.0503 12.9282 10.8035 12.9239 10.8035 12.9153C10.9197 12.1319 11.3028 9.06737 11.2899 9.04155C11.2813 9.02433 10.4118 9.01142 9.35729 9.01142H7.44193L7.45484 7.40596C7.46775 5.83924 7.47205 5.8005 7.57105 5.55086C7.77335 5.04727 8.19516 4.74598 8.83218 4.6642C9.00434 4.64268 9.66288 4.62115 10.2999 4.62115H11.4491L11.4405 2.86505L11.4276 1.11325L10.8681 1.0616C9.95126 0.979818 7.96273 0.953993 7.53231 1.02286Z" fill="white"/>
</svg>
